<svg xmlns="http://www.w3.org/2000/svg" width="41.118" height="41.118" viewBox="0 0 41.118 41.118">
  <path id="Icon_material-account-circle" data-name="Icon material-account-circle" d="M23.559,3A20.559,20.559,0,1,0,44.118,23.559,20.567,20.567,0,0,0,23.559,3Zm0,6.168a6.168,6.168,0,1,1-6.168,6.168A6.159,6.159,0,0,1,23.559,9.168Zm0,29.194a14.8,14.8,0,0,1-12.335-6.62c.062-4.091,8.224-6.332,12.335-6.332,4.091,0,12.274,2.241,12.335,6.332a14.8,14.8,0,0,1-12.335,6.62Z" transform="translate(-3 -3)" opacity="0.15"/>
</svg>
