<svg id="broadcast" xmlns="http://www.w3.org/2000/svg" width="35.728" height="42.874" viewBox="0 0 35.728 42.874">
  <path id="Path_12378" data-name="Path 12378" d="M14.359,21.718a5.359,5.359,0,1,1,5.359-5.359A5.366,5.366,0,0,1,14.359,21.718Z" transform="translate(3.505 8.65)" fill="#fff"/>
  <path id="Path_12379" data-name="Path 12379" d="M30.566,31.637a1.786,1.786,0,0,1-1.188-3.123,14.29,14.29,0,1,0-19.031,0,1.787,1.787,0,0,1-2.372,2.672,17.865,17.865,0,1,1,23.775,0A1.78,1.78,0,0,1,30.566,31.637Z" transform="translate(-2 0)" fill="#fff"/>
  <path id="Path_12380" data-name="Path 12380" d="M23,14.843a1.784,1.784,0,0,1-1.77-1.57,5.361,5.361,0,0,0-10.64,0,1.786,1.786,0,0,1-3.546-.431,8.933,8.933,0,0,1,17.732,0,1.786,1.786,0,0,1-1.558,1.988,1.809,1.809,0,0,1-.218.014Z" transform="translate(1.955 3.932)" fill="#fff"/>
  <path id="Path_12381" data-name="Path 12381" d="M26.1,27.932H7.34A1.34,1.34,0,0,1,6,26.592v-2.68A4.917,4.917,0,0,1,10.913,19H22.524a4.917,4.917,0,0,1,4.913,4.913v2.68A1.34,1.34,0,0,1,26.1,27.932Z" transform="translate(1.146 14.942)" fill="#fff"/>
</svg>
