<svg id="chatico" xmlns="http://www.w3.org/2000/svg" width="27.543" height="27.547" viewBox="0 0 27.543 27.547">
  <path id="Path_12131" data-name="Path 12131" d="M11.746,9.858H23.494V5.534a2.159,2.159,0,0,0-2.159-2.159H5.534A2.159,2.159,0,0,0,3.375,5.534v10.94a2.159,2.159,0,0,0,2.159,2.159H9.58V12.017A2.169,2.169,0,0,1,11.746,9.858Z" transform="translate(-3.375 -3.375)" fill="#fff"/>
  <path id="Path_12130" data-name="Path 12130" d="M28.884,11.981H14.209A2.527,2.527,0,0,0,11.686,14.5V24.723a2.521,2.521,0,0,0,2.523,2.517h8.4a.724.724,0,0,1,.5.212L27.282,31.3c.232.225.616.132.616-.192V27.756c0-.4.252-.523.649-.523h.066A2.756,2.756,0,0,0,31.4,24.716V14.5A2.513,2.513,0,0,0,28.884,11.981Z" transform="translate(-3.858 -3.875)" fill="#fff"/>
</svg>
