<svg id="dashboard-icon" xmlns="http://www.w3.org/2000/svg" width="23.74" height="23.689" viewBox="0 0 23.74 23.689">
  <path id="Path_12807" data-name="Path 12807" d="M11.287,69.994a11.289,11.289,0,0,0,11.2-9.846A1.281,1.281,0,0,0,21.212,58.7h-8a1.923,1.923,0,0,1-1.923-1.923v-8a1.281,1.281,0,0,0-1.443-1.271,11.29,11.29,0,0,0,1.443,22.486Z" transform="translate(0 -46.305)" fill="#fff"/>
  <path id="Path_12808" data-name="Path 12808" d="M490.237,1.01A1.279,1.279,0,0,0,488.8,2.282v8.644a1.282,1.282,0,0,0,1.282,1.282h8.646A1.278,1.278,0,0,0,500,10.772,11.294,11.294,0,0,0,490.237,1.01Z" transform="translate(-476.271 -1)" fill="#fff"/>
</svg>
