<svg xmlns="http://www.w3.org/2000/svg" width="149.939" height="112.298" viewBox="0 0 149.939 112.298">
  <g id="email" transform="translate(0 -64.266)">
    <path id="Path_1" data-name="Path 1" d="M87.5,213.072a22.553,22.553,0,0,1-25.061,0L1,172.11c-.341-.227-.673-.464-1-.708v67.12a13.8,13.8,0,0,0,13.8,13.8H136.136a13.8,13.8,0,0,0,13.8-13.8V171.4c-.326.244-.659.482-1,.709Z" transform="translate(0 -75.761)" fill="#43b5d7"/>
    <path id="Path_2" data-name="Path 2" d="M5.872,89.039,67.312,130a13.768,13.768,0,0,0,15.314,0l61.441-40.962a13.155,13.155,0,0,0,5.872-10.975,13.814,13.814,0,0,0-13.8-13.8H13.8A13.816,13.816,0,0,0,0,78.072,13.152,13.152,0,0,0,5.872,89.039Z" transform="translate(0)" fill="#43b5d7"/>
  </g>
</svg>
