<svg xmlns="http://www.w3.org/2000/svg" width="31.451" height="25.544" viewBox="0 0 31.451 25.544">
  <path id="Icon_awesome-twitter" data-name="Icon awesome-twitter" d="M28.218,9.747c.02.279.02.559.02.838,0,8.521-6.486,18.34-18.34,18.34A18.215,18.215,0,0,1,0,26.031a13.334,13.334,0,0,0,1.557.08,12.909,12.909,0,0,0,8-2.754,6.457,6.457,0,0,1-6.027-4.47,8.129,8.129,0,0,0,1.217.1,6.817,6.817,0,0,0,1.7-.219,6.447,6.447,0,0,1-5.169-6.326v-.08a6.492,6.492,0,0,0,2.914.818,6.455,6.455,0,0,1-2-8.621A18.322,18.322,0,0,0,15.486,11.3a7.277,7.277,0,0,1-.16-1.477,6.452,6.452,0,0,1,11.156-4.41A12.691,12.691,0,0,0,30.573,3.86a6.428,6.428,0,0,1-2.834,3.552,12.922,12.922,0,0,0,3.712-1,13.856,13.856,0,0,1-3.233,3.333Z" transform="translate(0 -3.381)" fill="#4ec0f2"/>
</svg>
