<svg xmlns="http://www.w3.org/2000/svg" width="24.028" height="24.028" viewBox="0 0 24.028 24.028">
  <path id="Icon_material-language" data-name="Icon material-language" d="M15,3A12.014,12.014,0,1,0,27.028,15.014,12.008,12.008,0,0,0,15,3Zm8.326,7.208H19.784a18.8,18.8,0,0,0-1.658-4.277A9.647,9.647,0,0,1,23.328,10.208ZM15.014,5.451a16.924,16.924,0,0,1,2.295,4.758H12.719A16.924,16.924,0,0,1,15.014,5.451Zm-9.3,11.966a9.4,9.4,0,0,1,0-4.806H9.776a19.842,19.842,0,0,0-.168,2.4,19.842,19.842,0,0,0,.168,2.4Zm.985,2.4h3.544A18.8,18.8,0,0,0,11.9,24.1,9.6,9.6,0,0,1,6.7,19.82Zm3.544-9.611H6.7a9.6,9.6,0,0,1,5.2-4.277A18.8,18.8,0,0,0,10.245,10.208Zm4.77,14.369a16.924,16.924,0,0,1-2.295-4.758h4.589A16.924,16.924,0,0,1,15.014,24.577Zm2.811-7.16H12.2a17.676,17.676,0,0,1-.192-2.4,17.522,17.522,0,0,1,.192-2.4h5.623a17.522,17.522,0,0,1,.192,2.4A17.676,17.676,0,0,1,17.825,17.417Zm.3,6.68a18.8,18.8,0,0,0,1.658-4.277h3.544a9.647,9.647,0,0,1-5.2,4.277Zm2.127-6.68a19.842,19.842,0,0,0,.168-2.4,19.842,19.842,0,0,0-.168-2.4h4.061a9.4,9.4,0,0,1,0,4.806Z" transform="translate(-3 -3)" opacity="0.4"/>
</svg>
