<svg xmlns="http://www.w3.org/2000/svg" width="22.362" height="18.169" viewBox="0 0 22.362 18.169">
  <path id="Icon_awesome-list-ul" data-name="Icon awesome-list-ul" d="M2.1,3.375a2.1,2.1,0,1,0,2.1,2.1,2.1,2.1,0,0,0-2.1-2.1Zm0,6.988a2.1,2.1,0,1,0,2.1,2.1,2.1,2.1,0,0,0-2.1-2.1Zm0,6.988a2.1,2.1,0,1,0,2.1,2.1,2.1,2.1,0,0,0-2.1-2.1Zm19.566.7H7.687a.7.7,0,0,0-.7.7v1.4a.7.7,0,0,0,.7.7H21.663a.7.7,0,0,0,.7-.7v-1.4A.7.7,0,0,0,21.663,18.05Zm0-13.976H7.687a.7.7,0,0,0-.7.7v1.4a.7.7,0,0,0,.7.7H21.663a.7.7,0,0,0,.7-.7v-1.4A.7.7,0,0,0,21.663,4.074Zm0,6.988H7.687a.7.7,0,0,0-.7.7v1.4a.7.7,0,0,0,.7.7H21.663a.7.7,0,0,0,.7-.7v-1.4A.7.7,0,0,0,21.663,11.062Z" transform="translate(0 -3.375)" fill="#fff"/>
</svg>
