<svg xmlns="http://www.w3.org/2000/svg" width="24.8" height="24.8" viewBox="0 0 24.8 24.8">
  <path id="Icon_awesome-question-circle" data-name="Icon awesome-question-circle" d="M25.362,12.962a12.4,12.4,0,1,1-12.4-12.4A12.4,12.4,0,0,1,25.362,12.962ZM13.3,4.662A6.476,6.476,0,0,0,7.468,7.85a.6.6,0,0,0,.136.813L9.338,9.979a.6.6,0,0,0,.833-.106c.893-1.133,1.506-1.79,2.865-1.79,1.021,0,2.285.657,2.285,1.648,0,.749-.618,1.133-1.627,1.7-1.176.659-2.733,1.48-2.733,3.533v.2a.6.6,0,0,0,.6.6h2.8a.6.6,0,0,0,.6-.6V15.1c0-1.423,4.159-1.482,4.159-5.333C19.122,6.862,16.113,4.662,13.3,4.662Zm-.333,12.4a2.3,2.3,0,1,0,2.3,2.3A2.3,2.3,0,0,0,12.962,17.062Z" transform="translate(-0.562 -0.562)" opacity="0.4"/>
</svg>
