<svg xmlns="http://www.w3.org/2000/svg" width="23" height="23" viewBox="0 0 23 23">
  <path id="Icon_awesome-donate" data-name="Icon awesome-donate" d="M11.5,18.688A9.344,9.344,0,1,0,2.156,9.344,9.342,9.342,0,0,0,11.5,18.688Zm-1-14.312V3.621a.744.744,0,0,1,.746-.746h.5a.744.744,0,0,1,.746.746v.764a3.542,3.542,0,0,1,1.932.692.5.5,0,0,1,.054.768l-.732.7a.506.506,0,0,1-.629.045,1.478,1.478,0,0,0-.8-.229H10.57a.781.781,0,0,0-.732.822.812.812,0,0,0,.544.791l2.8.84a2.814,2.814,0,0,1,1.963,2.7,2.77,2.77,0,0,1-2.655,2.8v.755a.744.744,0,0,1-.746.746h-.5a.744.744,0,0,1-.746-.746V14.3a3.542,3.542,0,0,1-1.932-.692.5.5,0,0,1-.054-.768l.732-.7a.506.506,0,0,1,.629-.045,1.478,1.478,0,0,0,.8.229h1.747a.781.781,0,0,0,.732-.822.812.812,0,0,0-.544-.791l-2.8-.84a2.814,2.814,0,0,1-1.963-2.7,2.773,2.773,0,0,1,2.655-2.8Zm11.06,11.437H20.1a10.888,10.888,0,0,1-3.279,2.875h2.866a.4.4,0,0,1,.431.359v.719a.4.4,0,0,1-.431.359H3.306a.4.4,0,0,1-.431-.359v-.719a.4.4,0,0,1,.431-.359H6.172a10.942,10.942,0,0,1-3.279-2.875H1.438A1.436,1.436,0,0,0,0,17.25v4.313A1.436,1.436,0,0,0,1.438,23H21.563A1.436,1.436,0,0,0,23,21.563V17.25A1.436,1.436,0,0,0,21.563,15.813Z" fill="#fff"/>
</svg>
