<svg xmlns="http://www.w3.org/2000/svg" width="26.674" height="26.774" viewBox="0 0 26.674 26.774">
  <g id="Icon_feather-settings" data-name="Icon feather-settings" transform="translate(0.5 0.5)">
    <path id="Path_49" data-name="Path 49" d="M22.973,17.9a1.939,1.939,0,0,0,.385,2.132l.07.07a2.34,2.34,0,1,1-3.3,3.315l-.07-.07a1.94,1.94,0,0,0-3.291,1.382v.2a2.334,2.334,0,1,1-4.668,0v-.105a1.933,1.933,0,0,0-1.26-1.769,1.92,1.92,0,0,0-2.124.387l-.07.07A2.34,2.34,0,0,1,5.34,20.2l.07-.07a1.95,1.95,0,0,0-1.377-3.3h-.2a2.343,2.343,0,0,1,0-4.686h.105A1.926,1.926,0,0,0,5.7,10.872,1.939,1.939,0,0,0,5.316,8.74l-.07-.07a2.34,2.34,0,1,1,3.3-3.315l.07.07a1.92,1.92,0,0,0,2.124.387h.093A1.933,1.933,0,0,0,12,4.042v-.2a2.334,2.334,0,1,1,4.668,0v.105a1.94,1.94,0,0,0,3.291,1.382l.07-.07a2.34,2.34,0,0,1,3.3,3.315l-.07.07a1.939,1.939,0,0,0-.385,2.132v.094a1.925,1.925,0,0,0,1.762,1.172h.2a2.343,2.343,0,0,1,0,4.686h-.105A1.925,1.925,0,0,0,22.973,17.9Z" transform="translate(-1.5 -1.5)" fill="#fff" stroke="#fff" stroke-linecap="round" stroke-linejoin="round" stroke-width="1"/>
    <path id="Path_48" data-name="Path 48" d="M20.5,17.015A3.5,3.5,0,1,1,17,13.5,3.508,3.508,0,0,1,20.5,17.015Z" transform="translate(-4.164 -4.128)" fill="#475d65" stroke="#475d65" stroke-linecap="round" stroke-linejoin="round" stroke-width="2"/>
  </g>
</svg>
