<svg xmlns="http://www.w3.org/2000/svg" width="46.191" height="30.019" viewBox="0 0 46.191 30.019">
  <g id="Icon_ionic-ios-people" data-name="Icon ionic-ios-people" transform="translate(-2.215 -7.748)">
    <path id="Path_12798" data-name="Path 12798" d="M32.12,30.844c-1.152-.412-3.035-.432-3.868-.751a5.465,5.465,0,0,1-1.79-.833,11.061,11.061,0,0,1-.3-2.932,4.736,4.736,0,0,0,1.018-1.44,16.007,16.007,0,0,0,.494-2.829s.679.288.946-1.07c.226-1.173.658-1.79.545-2.654s-.6-.658-.6-.658.6-.874.6-3.848c0-3.066-2.315-6.08-6.646-6.08s-6.656,3.025-6.656,6.08c0,2.973.586,3.848.586,3.848s-.484-.206-.6.658.309,1.481.545,2.654c.267,1.368.946,1.07.946,1.07a16.161,16.161,0,0,0,.494,2.829,4.736,4.736,0,0,0,1.018,1.44,11.061,11.061,0,0,1-.3,2.932,5.259,5.259,0,0,1-1.79.823c-.823.319-2.706.36-3.868.772a7.26,7.26,0,0,0-4.712,6.913h28.63A7.246,7.246,0,0,0,32.12,30.844Z" transform="translate(2.768 0)" fill="#fff"/>
    <path id="Path_12799" data-name="Path 12799" d="M13.377,24.232s2.459-.082,3.436-.957c-1.595-2.418-.73-5.236-1.06-7.87s-1.821-4.2-4.8-4.2h-.041a4.354,4.354,0,0,0-4.763,4.2c-.329,2.623.586,5.761-1.049,7.87.977.885,3.446.854,3.446.854h0a5.21,5.21,0,0,1-.1,1.728,2.6,2.6,0,0,1-1.235.566,23.87,23.87,0,0,0-2.664.741,4.331,4.331,0,0,0-2.325,3.827h8.261c.226-.823,1.78-2.294,3.292-3.066a6.908,6.908,0,0,1,2.541-.535s.391-.617-.9-.854a8.769,8.769,0,0,1-1.975-.689C13.243,25.621,13.377,24.232,13.377,24.232Z" transform="translate(0 1.602)" fill="#fff"/>
    <path id="Path_12800" data-name="Path 12800" d="M27.244,24.232s-2.459-.082-3.436-.957c1.595-2.418.73-5.236,1.06-7.87s1.821-4.2,4.8-4.2h.041a4.354,4.354,0,0,1,4.763,4.2c.329,2.623-.586,5.761,1.049,7.87-.977.885-3.446.854-3.446.854h0a5.21,5.21,0,0,0,.1,1.728,2.6,2.6,0,0,0,1.235.566,23.87,23.87,0,0,1,2.664.741,4.331,4.331,0,0,1,2.325,3.827H30.145c-.226-.823-1.78-2.294-3.292-3.066a6.908,6.908,0,0,0-2.541-.535s-.391-.617.9-.854a8.769,8.769,0,0,0,1.975-.689C27.378,25.621,27.244,24.232,27.244,24.232Z" transform="translate(10 1.602)" fill="#fff"/>
  </g>
</svg>
