<svg xmlns="http://www.w3.org/2000/svg" width="18.417" height="21.048" viewBox="0 0 18.417 21.048">
  <path id="Icon_awesome-unlock" data-name="Icon awesome-unlock" d="M16.444,10.524H6.249V6.286a2.96,2.96,0,1,1,5.92-.037v.658a.984.984,0,0,0,.987.987H14.47a.984.984,0,0,0,.987-.987V6.249a6.249,6.249,0,1,0-12.5.062v4.214H1.973A1.974,1.974,0,0,0,0,12.5v6.577a1.974,1.974,0,0,0,1.973,1.973h14.47a1.974,1.974,0,0,0,1.973-1.973V12.5A1.974,1.974,0,0,0,16.444,10.524Z" transform="translate(0 0)" fill="#fff"/>
</svg>
