<svg xmlns="http://www.w3.org/2000/svg" width="29.277" height="28.388" viewBox="0 0 29.277 28.388">
  <g id="icon-artists" transform="translate(-2.472)">
    <path id="Icon_feather-star" data-name="Icon feather-star" d="M6.578,3,7.683,5.24l2.472.361L8.366,7.343,8.789,9.8,6.578,8.642,4.367,9.8l.422-2.461L3,5.6,5.472,5.24Z" transform="translate(20.593 17.583)" fill="#fff" stroke="#fff" stroke-linecap="round" stroke-linejoin="round" stroke-width="2"/>
    <path id="Icon_feather-star-2" data-name="Icon feather-star" d="M6.578,3,7.683,5.24l2.472.361L8.366,7.343,8.789,9.8,6.578,8.642,4.367,9.8l.422-2.461L3,5.6,5.472,5.24Z" transform="translate(0.472 17.583)" fill="#fff" stroke="#fff" stroke-linecap="round" stroke-linejoin="round" stroke-width="2"/>
    <path id="Icon_feather-star-3" data-name="Icon feather-star" d="M7.457,3,8.834,5.79l3.08.45L9.686,8.411l.526,3.066L7.457,10.029,4.7,11.477l.526-3.066L3,6.24l3.08-.45Z" transform="translate(9.653 15.524)" fill="#fff" stroke="#fff" stroke-linecap="round" stroke-linejoin="round" stroke-width="2"/>
    <g id="Group_17023" data-name="Group 17023" transform="translate(10.037 1)">
      <path id="Path_11926" data-name="Path 11926" d="M15.777,18.628V16.752A3.871,3.871,0,0,0,14.741,14.1a3.436,3.436,0,0,0-2.5-1.1H5.167a3.436,3.436,0,0,0-2.5,1.1,3.871,3.871,0,0,0-1.036,2.653v1.876" transform="translate(-1.631 -2.959)" fill="#fff" stroke="#fff" stroke-linecap="round" stroke-linejoin="round" stroke-width="2"/>
      <path id="Path_11927" data-name="Path 11927" d="M9.4,8.531h0a3.515,3.515,0,0,0,3.538-3.488A3.538,3.538,0,1,0,9.4,8.531Z" transform="translate(-2.278 -1.555)" fill="#fff" stroke="#fff" stroke-linecap="round" stroke-linejoin="round" stroke-width="2"/>
    </g>
  </g>
</svg>
