<svg xmlns="http://www.w3.org/2000/svg" width="36.329" height="25.544" viewBox="0 0 36.329 25.544">
  <path id="Icon_awesome-youtube" data-name="Icon awesome-youtube" d="M36.62,8.5a4.565,4.565,0,0,0-3.212-3.233C30.575,4.5,19.214,4.5,19.214,4.5s-11.36,0-14.194.764A4.565,4.565,0,0,0,1.809,8.5c-.759,2.852-.759,8.8-.759,8.8s0,5.949.759,8.8A4.5,4.5,0,0,0,5.021,29.28c2.833.764,14.194.764,14.194.764s11.36,0,14.194-.764A4.5,4.5,0,0,0,36.62,26.1c.759-2.852.759-8.8.759-8.8s0-5.949-.759-8.8ZM15.5,22.7V11.9l9.5,5.4-9.5,5.4Z" transform="translate(-1.05 -4.5)" fill="#f00000"/>
</svg>
