<svg xmlns="http://www.w3.org/2000/svg" width="26.365" height="23.306" viewBox="0 0 26.365 23.306">
  <g id="sessions-icon" transform="translate(0.093 -0.001)">
    <g id="Exclusion_2" data-name="Exclusion 2" transform="translate(-0.093 0.001)" fill="#fff" stroke-linecap="round" stroke-linejoin="round">
      <path d="M 23.36490058898926 17.55540084838867 L 2.999700784683228 17.55540084838867 C 1.841920733451843 17.55540084838867 0.9000006914138794 16.61347961425781 0.9000006914138794 15.4556999206543 L 0.9000006914138794 2.999700307846069 C 0.9000006914138794 1.841920256614685 1.841920733451843 0.9000002145767212 2.999700784683228 0.9000002145767212 L 23.36490058898926 0.9000002145767212 C 24.52317047119141 0.9000002145767212 25.46549987792969 1.841920256614685 25.46549987792969 2.999700307846069 L 25.46549987792969 15.4556999206543 C 25.46549987792969 16.61347961425781 24.52317047119141 17.55540084838867 23.36490058898926 17.55540084838867 Z M 11.16383075714111 4.55486011505127 C 10.75671100616455 4.55486011505127 10.35343074798584 4.708330154418945 10.05739116668701 4.975910186767578 C 9.719080924987793 5.281780242919922 9.532800674438477 5.711400032043457 9.532800674438477 6.185700416564941 L 9.532800674438477 12.53700065612793 C 9.532800674438477 13.43788051605225 10.26567077636719 14.17086982727051 11.16648101806641 14.17096042633057 C 11.4572811126709 14.17096042633057 11.74444103240967 14.09181022644043 11.99701023101807 13.94204998016357 L 17.36888122558594 10.7675199508667 C 17.87153053283691 10.47138977050781 18.17193984985352 9.945059776306152 18.17145156860352 9.360199928283691 C 18.17098045349121 8.776249885559082 17.87009048461914 8.251160621643066 17.3665714263916 7.955620288848877 L 11.99607086181641 4.780100345611572 C 11.74587059020996 4.632570266723633 11.45845031738281 4.554880142211914 11.1639404296875 4.55486011505127 L 12.06387042999268 5.454860210418701 L 10.26557064056396 5.417910575866699 L 11.16383075714111 4.55486011505127 Z" stroke="none"/>
      <path d="M 23.36490058898926 16.65539932250977 C 24.02691078186035 16.65539932250977 24.56550025939941 16.11721992492676 24.56550025939941 15.4556999206543 L 24.56550025939941 2.999700307846069 C 24.56550025939941 2.338180303573608 24.02691078186035 1.800000190734863 23.36490058898926 1.800000190734863 L 2.999700784683228 1.800000190734863 C 2.338180780410767 1.800000190734863 1.800000667572021 2.338180303573608 1.800000667572021 2.999700307846069 L 1.800000667572021 15.4556999206543 C 1.800000667572021 16.11721992492676 2.338180780410767 16.65539932250977 2.999700784683228 16.65539932250977 L 23.36490058898926 16.65539932250977 M 11.08337211608887 3.656098604202271 C 11.12186431884766 3.654414892196655 11.16079425811768 3.653939008712769 11.19985103607178 3.654720306396484 C 11.21396541595459 3.655002355575562 11.22801971435547 3.655446290969849 11.24205112457275 3.656050682067871 C 11.66995525360107 3.669080972671509 12.08691215515137 3.788859605789185 12.45415115356445 4.005390167236328 L 17.82394027709961 7.18049144744873 C 18.59274673461914 7.632620811462402 19.07073211669922 8.467378616333008 19.07145118713379 9.359439849853516 C 19.07220077514648 10.25314044952393 18.5944709777832 11.09005069732666 17.8267707824707 11.54234027862549 L 12.45601081848145 14.71621036529541 C 12.0645809173584 14.94828987121582 11.61870098114014 15.07096004486084 11.16639041900635 15.07096004486084 C 9.769360542297363 15.07081985473633 8.632801055908203 13.93409061431885 8.632801055908203 12.53700065612793 L 8.632801055908203 6.185700416564941 C 8.632801055908203 5.453710079193115 8.924350738525391 4.787000179290771 9.453890800476074 4.308250427246094 C 9.900333404541016 3.904696464538574 10.47627639770508 3.674798727035522 11.08337211608887 3.656098604202271 M 23.36490058898926 18.45540046691895 L 2.999700784683228 18.45540046691895 C 1.34566068649292 18.45540046691895 7.019042982392421e-07 17.10973930358887 7.019042982392421e-07 15.4556999206543 L 7.019042982392421e-07 2.999700307846069 C 7.019042982392421e-07 1.345660209655762 1.34566068649292 2.334594739750173e-07 2.999700784683228 2.334594739750173e-07 L 23.36490058898926 2.334594739750173e-07 C 25.01944160461426 2.334594739750173e-07 26.36550140380859 1.345660209655762 26.36550140380859 2.999700307846069 L 26.36550140380859 15.4556999206543 C 26.36550140380859 17.10973930358887 25.01944160461426 18.45540046691895 23.36490058898926 18.45540046691895 Z M 11.1638708114624 5.453860282897949 L 11.16383075714111 5.454860210418701 C 10.97689056396484 5.454860210418701 10.79358100891113 5.523650169372559 10.66090106964111 5.643580436706543 C 10.51168060302734 5.77849006652832 10.43280029296875 5.965950012207031 10.43280029296875 6.185700416564941 L 10.43280029296875 12.53700065612793 C 10.43280029296875 12.94167041778564 10.76197052001953 13.27091979980469 11.16657066345215 13.27095985412598 C 11.29586029052734 13.27095985412598 11.42429065704346 13.23532009124756 11.53800106048584 13.16790008544922 L 16.91100120544434 9.992700576782227 C 17.13692092895508 9.859600067138672 17.27167129516602 9.623439788818359 17.27145004272461 9.360950469970703 C 17.271240234375 9.099340438842773 17.13648986816406 8.864150047302246 16.91100120544434 8.731800079345703 L 11.53800106048584 5.554800033569336 C 11.42713069915771 5.48943042755127 11.29776096343994 5.454870223999023 11.1638708114624 5.454860210418701 L 11.1638708114624 5.453860282897949 Z" stroke="none" fill="#fff"/>
    </g>
    <path id="Path_12377" data-name="Path 12377" d="M394.953,784.75h17.584" transform="translate(-390.655 -762.443)" fill="none" stroke="#fff" stroke-linecap="round" stroke-linejoin="round" stroke-width="2"/>
  </g>
</svg>
