<svg xmlns="http://www.w3.org/2000/svg" width="21.683" height="21.761" viewBox="0 0 21.683 21.761">
  <path id="setting-ico2" d="M10.92,21.761a1.977,1.977,0,0,1-1.971-1.979v-.089A1.621,1.621,0,0,0,7.885,18.2a1.621,1.621,0,0,0-1.794.326l-.059.059a1.966,1.966,0,0,1-2.79,0,1.994,1.994,0,0,1-.578-1.4,1.968,1.968,0,0,1,.578-1.4l.059-.059a1.646,1.646,0,0,0-1.163-2.79H1.971a1.978,1.978,0,0,1,0-3.957H2.06A1.618,1.618,0,0,0,3.548,7.913a1.629,1.629,0,0,0-.325-1.8l-.059-.059a1.985,1.985,0,0,1,0-2.8,1.968,1.968,0,0,1,2.79,0l.059.059a1.622,1.622,0,0,0,1.794.327h.079A1.631,1.631,0,0,0,8.87,2.146V1.978a1.971,1.971,0,1,1,3.943,0v.089A1.632,1.632,0,0,0,13.8,3.561a1.622,1.622,0,0,0,1.794-.327l.059-.059a1.979,1.979,0,0,1,1.394-.581,1.953,1.953,0,0,1,1.395.581,1.994,1.994,0,0,1,.578,1.4,1.971,1.971,0,0,1-.578,1.4l-.059.059a1.63,1.63,0,0,0-.325,1.8v.079a1.627,1.627,0,0,0,1.489.989h.167a1.978,1.978,0,0,1,0,3.957h-.089a1.646,1.646,0,0,0-1.163,2.789l.059.059a1.971,1.971,0,0,1,.578,1.4,1.978,1.978,0,0,1-1.973,1.98,1.956,1.956,0,0,1-1.395-.581l-.059-.059a1.62,1.62,0,0,0-1.794-.326,1.63,1.63,0,0,0-.985,1.493v.168A1.978,1.978,0,0,1,10.92,21.761ZM10.842,7.913A2.967,2.967,0,1,0,13.8,10.88,2.965,2.965,0,0,0,10.842,7.913Z" fill="#fff"/>
</svg>
